<svg xmlns="http://www.w3.org/2000/svg" viewBox="0 0 800 600">
  <!-- White background -->
  <rect width="800" height="600" fill="white" />
  
  <!-- Title -->
  <text x="400" y="30" font-family="Arial" font-size="20" font-weight="bold" text-anchor="middle">Performance Comparison</text>
  
  <!-- Define chart area -->
  <!-- Margins: left=100, right=50, top=60, bottom=150 -->
  <g transform="translate(100, 60)">
    <!-- Axes -->
    <line x1="0" y1="400" x2="650" y2="400" stroke="black" stroke-width="2" />
    <line x1="0" y1="0" x2="0" y2="400" stroke="black" stroke-width="2" />
    
    <!-- Y-axis ticks and labels -->
    <line x1="-5" y1="0" x2="0" y2="0" stroke="black" stroke-width="1" />
    <text x="-10" y="5" font-family="Arial" font-size="12" text-anchor="end">100%</text>
    
    <line x1="-5" y1="80" x2="0" y2="80" stroke="black" stroke-width="1" />
    <text x="-10" y="85" font-family="Arial" font-size="12" text-anchor="end">80%</text>
    
    <line x1="-5" y1="160" x2="0" y2="160" stroke="black" stroke-width="1" />
    <text x="-10" y="165" font-family="Arial" font-size="12" text-anchor="end">60%</text>
    
    <line x1="-5" y1="240" x2="0" y2="240" stroke="black" stroke-width="1" />
    <text x="-10" y="245" font-family="Arial" font-size="12" text-anchor="end">40%</text>
    
    <line x1="-5" y1="320" x2="0" y2="320" stroke="black" stroke-width="1" />
    <text x="-10" y="325" font-family="Arial" font-size="12" text-anchor="end">20%</text>
    
    <line x1="-5" y1="400" x2="0" y2="400" stroke="black" stroke-width="1" />
    <text x="-10" y="405" font-family="Arial" font-size="12" text-anchor="end">0%</text>
    
    <!-- Y-axis label -->
    <text x="-60" y="200" font-family="Arial" font-size="14" text-anchor="middle" transform="rotate(-90, -60, 200)">Percentage (%)</text>
    
    <!-- Random Baseline at 25% -->
    <line x1="0" y1="300" x2="650" y2="300" stroke="orange" stroke-width="2" stroke-dasharray="5,5" />
    <text x="10" y="290" font-family="Arial" font-size="12" fill="orange">Random Baseline (25%)</text>
    
    <!-- Bars -->
    <!-- Bar 1: 4o-Mini Collaboration (92%) -->
    <rect x="30" y="32" width="80" height="368" fill="#4285F4" />
    <text x="70" y="22" font-family="Arial" font-size="12" text-anchor="middle">92%</text>
    
    <!-- Bar 2: 4o-Mini (90%) -->
    <rect x="150" y="40" width="80" height="360" fill="#4285F4" />
    <text x="190" y="30" font-family="Arial" font-size="12" text-anchor="middle">90%</text>
    
    <!-- Bar 3: 3 Saboteurs (20.27%) -->
    <rect x="270" y="319" width="80" height="81" fill="#4285F4" />
    <text x="310" y="309" font-family="Arial" font-size="12" text-anchor="middle">20.27%</text>
    
    <!-- Bar 4: Expected Saboteurs (8%) -->
    <rect x="390" y="368" width="80" height="32" fill="#4285F4" />
    <text x="430" y="358" font-family="Arial" font-size="12" text-anchor="middle">8%</text>
    
    <!-- Bar 5: Worst-Case Collaborators vs Saboteurs (86%) -->
    <rect x="510" y="56" width="80" height="344" fill="#4285F4" />
    <text x="550" y="46" font-family="Arial" font-size="12" text-anchor="middle">86%</text>
    
    <!-- X-axis labels (rotated to prevent overlap) -->
    <text x="70" y="420" font-family="Arial" font-size="12" text-anchor="end" transform="rotate(-45, 70, 420)">4o-Mini Collaboration</text>
    <text x="190" y="420" font-family="Arial" font-size="12" text-anchor="end" transform="rotate(-45, 190, 420)">4o-Mini</text>
    <text x="310" y="420" font-family="Arial" font-size="12" text-anchor="end" transform="rotate(-45, 310, 420)">3 Saboteurs</text>
    <text x="430" y="420" font-family="Arial" font-size="12" text-anchor="end" transform="rotate(-45, 430, 420)">Expected Saboteurs</text>
    <text x="550" y="420" font-family="Arial" font-size="12" text-anchor="end" transform="rotate(-45, 550, 420)">Worst-Case Collaborators vs Saboteurs</text>
  </g>
</svg>
